{
  "asset": {
    "version": "2.0",
    "generator": "THREE.GLTFExporter"
  },
  "scenes": [
    {
      "nodes": [
        1,
        2
      ],
      "name": "scene"
    }
  ],
  "scene": 0,
  "nodes": [
    {
      "matrix": [
        0.01,
        0,
        0,
        0,
        0,
        2.220446049250313e-18,
        -0.01,
        0,
        0,
        0.01,
        2.220446049250313e-18,
        0,
        0,
        -0.49817327105704073,
        0,
        1
      ],
      "name": "MilkshapeExported1",
      "extras": {
        "transformData": {
          "inheritType": 1,
          "eulerOrder": "ZYX",
          "preRotation": [
            -90,
            0,
            0
          ],
          "parentMatrixWorld": {
            "elements": [
              1,
              0,
              0,
              0,
              0,
              1,
              0,
              0,
              0,
              0,
              1,
              0,
              0,
              0,
              0,
              1
            ]
          }
        }
      },
      "mesh": 0
    },
    {
      "matrix": [
        1,
        0,
        0,
        0,
        0,
        1,
        0,
        0,
        0,
        0,
        1,
        0,
        0,
        0,
        0.7983774275321807,
        1
      ],
      "children": [
        0
      ]
    },
    {
      "matrix": [
        0.06195427987472302,
        0,
        -0.9980789884599338,
        0,
        0,
        1,
        0,
        0,
        0.9980789884599338,
        0,
        0.06195427987472302,
        0,
        2.074665894960587,
        0.3109403142761722,
        1.0519375974453298,
        1
      ],
      "name": "camera",
      "camera": 0
    }
  ],
  "bufferViews": [
    {
      "buffer": 0,
      "byteOffset": 0,
      "byteLength": 365544,
      "target": 34962,
      "byteStride": 12
    },
    {
      "buffer": 0,
      "byteOffset": 365544,
      "byteLength": 365544,
      "target": 34962,
      "byteStride": 12
    },
    {
      "buffer": 0,
      "byteOffset": 731088,
      "byteLength": 243696,
      "target": 34962,
      "byteStride": 8
    }
  ],
  "buffers": [
    {
      "byteLength": 974784,
      "uri": "data:application/octet-stream;base64,"
    }
  ],
  "accessors": [
    {
      "bufferView": 0,
      "componentType": 5126,
      "count": 30462,
      "max": [
        18.007835388183594,
        67.43079376220703,
        165.01502990722656
      ],
      "min": [
        -33.26335906982422,
        -67.41031646728516,
        0.18235650658607483
      ],
      "type": "VEC3"
    },
    {
      "bufferView": 1,
      "componentType": 5126,
      "count": 30462,
      "max": [
        1,
        1,
        1
      ],
      "min": [
        -1,
        -1,
        -1
      ],
      "type": "VEC3"
    },
    {
      "bufferView": 2,
      "componentType": 5126,
      "count": 30462,
      "max": [
        0.9951214790344238,
        0.9970846772193909
      ],
      "min": [
        0.0027127950452268124,
        0.00381010421551764
      ],
      "type": "VEC2"
    }
  ],
  "materials": [
    {
      "pbrMetallicRoughness": {
        "baseColorFactor": [
          0.588235318660736,
          0.588235318660736,
          0.588235318660736,
          1
        ],
        "metallicFactor": 0,
        "roughnessFactor": 1,
        "baseColorTexture": {
          "index": 0
        }
      },
      "name": "01 - Default"
    }
  ],
  "textures": [
    {
      "sampler": 0,
      "source": 0
    }
  ],
  "samplers": [
    {
      "magFilter": 9729,
      "minFilter": 9987,
      "wrapS": 33071,
      "wrapT": 33071
    }
  ],
  "images": [
    {
      "mimeType": "image/jpeg",
      "uri": "data:image/jpeg;base64,"
    }
  ],
  "meshes": [
    {
      "primitives": [
        {
          "mode": 4,
          "attributes": {
            "POSITION": 0,
            "NORMAL": 1,
            "TEXCOORD_0": 2
          },
          "material": 0
        }
      ]
    }
  ],
  "cameras": [
    {
      "type": "perspective",
      "perspective": {
        "aspectRatio": 1,
        "yfov": 1.0471975511965976,
        "zfar": 2000,
        "znear": 0.1
      },
      "name": "PerspectiveCamera"
    }
  ]
}